<svg id="Layer_1" data-name="Layer 1" xmlns="http://www.w3.org/2000/svg" viewBox="0 0 156 121"><defs><style>.cls-1{fill:#cc9;}.cls-1,.cls-2,.cls-3{stroke:#000;stroke-miterlimit:10;stroke-width:0.5px;}.cls-2{fill:#fff;}.cls-3{fill:#963;}</style></defs><title>cc-logo</title><path class="cls-1" d="M18.93,15.17a121.3,121.3,0,0,0,.74,13.43A13.84,13.84,0,0,1,32,32.44l0,19.51a13.82,13.82,0,0,1-5.52,3.38A49.58,49.58,0,0,0,34.9,69.06H64.38c9.52-10.43,16-30.65,16-53.89Z"/><path class="cls-1" d="M29.33,34.61a10.75,10.75,0,1,0,0,15.18Z"/><path class="cls-2" d="M22,17.86c0,3.6.17,7.11.5,10.51A13.77,13.77,0,0,1,32,32.44l0,19.51a13.87,13.87,0,0,1-3.08,2.32,44.35,44.35,0,0,0,7.52,12.08H62.9C71.47,57,77.28,38.77,77.28,17.86Z"/><path class="cls-3" d="M22.23,24.86c.07,1.18.16,2.36.27,3.52A13.77,13.77,0,0,1,32,32.44l0,19.51a13.87,13.87,0,0,1-3.08,2.32,44.35,44.35,0,0,0,7.52,12.08H62.9c7.59-8.32,13-23.58,14.15-41.5Z"/></svg>