<svg id="Layer_1" data-name="Layer 1" xmlns="http://www.w3.org/2000/svg" viewBox="0 0 832 121"><defs><style>.cls-1{fill:#cc9;}.cls-1,.cls-2,.cls-3,.cls-4{stroke:#000;stroke-miterlimit:10;stroke-width:0.5px;}.cls-2{fill:#fff;}.cls-3,.cls-4{fill:#963;}.cls-4{font-size:38.77px;font-family:CalistoMT, Calisto MT;}</style></defs><title>cc-logo-text</title><path class="cls-1" d="M36.93,27.17a121.3,121.3,0,0,0,.74,13.43A13.84,13.84,0,0,1,50,44.44l0,19.51a13.82,13.82,0,0,1-5.52,3.38A49.58,49.58,0,0,0,52.9,81.06H82.38c9.52-10.43,16-30.65,16-53.89Z"/><path class="cls-1" d="M47.33,46.61a10.75,10.75,0,1,0,0,15.18Z"/><path class="cls-2" d="M40,29.86c0,3.6.17,7.11.5,10.51A13.77,13.77,0,0,1,50,44.44l0,19.51a13.87,13.87,0,0,1-3.08,2.32,44.35,44.35,0,0,0,7.52,12.08H80.9C89.47,69,95.28,50.77,95.28,29.86Z"/><path class="cls-3" d="M40.23,36.86c.07,1.18.16,2.36.27,3.52A13.77,13.77,0,0,1,50,44.44l0,19.51a13.87,13.87,0,0,1-3.08,2.32,44.35,44.35,0,0,0,7.52,12.08H80.9c7.59-8.32,13-23.58,14.15-41.5Z"/><text class="cls-4" transform="translate(98.2 79)">Caffeine Creations</text></svg>