<svg xmlns="http://www.w3.org/2000/svg" viewBox="0 0 376.29 60.7"><defs><style>.cls-1{fill:#cc9;}.cls-1,.cls-2,.cls-3,.cls-4{stroke:#000;stroke-miterlimit:10;stroke-width:0.5px;}.cls-2{fill:#fff;}.cls-3,.cls-4{fill:#963;}.cls-4{font-size:38.77px;font-family:CalistoMT, Calisto MT;}</style></defs><title>cc-logo-text</title><g id="Layer_2" data-name="Layer 2"><g id="Layer_1-2" data-name="Layer 1"><path class="cls-1" d="M8.22.25A121.3,121.3,0,0,0,9,13.68a13.84,13.84,0,0,1,12.28,3.85l0,19.51a13.82,13.82,0,0,1-5.52,3.38,49.58,49.58,0,0,0,8.49,13.72H53.66c9.52-10.43,16-30.65,16-53.89Z"/><path class="cls-1" d="M18.62,19.69a10.75,10.75,0,1,0,0,15.18Z"/><path class="cls-2" d="M11.29,2.94c0,3.6.17,7.11.5,10.51a13.77,13.77,0,0,1,9.45,4.07l0,19.51a13.87,13.87,0,0,1-3.08,2.32,44.35,44.35,0,0,0,7.52,12.08H52.19c8.57-9.39,14.37-27.59,14.37-48.5Z"/><path class="cls-2" d="M21.62,27.07"/><path class="cls-3" d="M11.52,9.94c.07,1.18.16,2.36.27,3.52a13.77,13.77,0,0,1,9.45,4.07l0,19.51a13.87,13.87,0,0,1-3.08,2.32,44.35,44.35,0,0,0,7.52,12.08H52.19c7.59-8.32,13-23.58,14.15-41.5Z"/><text class="cls-4" transform="translate(69.48 52.09)">Caffeine Creations</text></g></g></svg>